<?xml version="1.0" encoding="UTF-8" standalone="no"?>
<!-- Created with Inkscape (http://www.inkscape.org/) -->

<svg
   xmlns:dc="http://purl.org/dc/elements/1.1/"
   xmlns:cc="http://creativecommons.org/ns#"
   xmlns:rdf="http://www.w3.org/1999/02/22-rdf-syntax-ns#"
   xmlns:svg="http://www.w3.org/2000/svg"
   xmlns="http://www.w3.org/2000/svg"
   xmlns:sodipodi="http://sodipodi.sourceforge.net/DTD/sodipodi-0.dtd"
   xmlns:inkscape="http://www.inkscape.org/namespaces/inkscape"
   id="svg2"
   version="1.1"
   inkscape:version="0.92.3 (2405546, 2018-03-11)"
   width="836.37625"
   height="212.78125"
   xml:space="preserve"
   sodipodi:docname="norconex-logo-white-final-converted.svg"><metadata
     id="metadata8"><rdf:RDF><cc:Work
         rdf:about=""><dc:format>image/svg+xml</dc:format><dc:type
           rdf:resource="http://purl.org/dc/dcmitype/StillImage" /><dc:title></dc:title></cc:Work></rdf:RDF></metadata><defs
     id="defs6"><clipPath
       clipPathUnits="userSpaceOnUse"
       id="clipPath16"><path
         d="m 0,170.225 669.101,0 L 669.101,0 0,0 0,170.225 z"
         id="path18" /></clipPath></defs><sodipodi:namedview
     pagecolor="#ffffff"
     bordercolor="#666666"
     borderopacity="1"
     objecttolerance="10"
     gridtolerance="10"
     guidetolerance="10"
     inkscape:pageopacity="0"
     inkscape:pageshadow="2"
     inkscape:window-width="1280"
     inkscape:window-height="667"
     id="namedview4"
     showgrid="false"
     inkscape:zoom="0.86085661"
     inkscape:cx="148.32781"
     inkscape:cy="123.14556"
     inkscape:window-x="-8"
     inkscape:window-y="312"
     inkscape:window-maximized="1"
     inkscape:current-layer="g10"
     inkscape:pagecheckerboard="true"><inkscape:grid
       type="xygrid"
       id="grid3004"
       empspacing="5"
       visible="true"
       enabled="true"
       snapvisiblegridlinesonly="true" /></sodipodi:namedview><g
     id="g10"
     inkscape:groupmode="layer"
     inkscape:label="norconex-logo-final"
     transform="matrix(1.25,0,0,-1.25,0,212.78125)"><g
       id="g20"
       transform="translate(434.7612,31.2461)"
       style="fill:#ffffff;fill-opacity:1"><path
         d="m 0,0 0.074,0.046 -22.021,35.4 c -2.174,-2.04 -4.575,-3.9 -7.203,-5.535 -2.628,-1.635 -5.359,-2.967 -8.149,-4.015 l 22.023,-35.401 0.074,0.046 c 2.495,-2.901 7.248,-3.386 11.142,-0.963 C -0.165,-8 1.501,-3.521 0,0"
         style="fill:#ffffff;fill-opacity:1;fill-rule:nonzero;stroke:none"
         id="path22"
         inkscape:connector-curvature="0" /></g><g
       id="g24"
       transform="translate(354.8774,86.5527)"
       style="fill:#ffffff;fill-opacity:1"><path
         d="m 0,0 c -8.577,13.791 -4.353,31.926 9.439,40.507 13.79,8.577 31.926,4.353 40.506,-9.44 C 58.523,17.276 54.3,-0.858 40.507,-9.438 26.716,-18.017 8.579,-13.793 0,0 M 63.902,39.751 C 50.528,61.251 22.255,67.839 0.756,54.464 -20.745,41.089 -27.332,12.815 -13.957,-8.685 -2.216,-27.557 21.001,-34.934 41.042,-27.41 c 2.79,1.048 5.521,2.38 8.148,4.014 2.628,1.635 5.03,3.496 7.204,5.536 15.605,14.652 19.25,38.739 7.508,57.611"
         style="fill:#ffffff;fill-opacity:1;fill-rule:nonzero;stroke:none"
         id="path26"
         inkscape:connector-curvature="0" /></g><g
       id="g28"
       transform="translate(381.8511,126.8525)"
       style="fill:#ffffff;fill-opacity:1"><path
         d="m 0,0 c 0,0 17.393,-3.146 21.05,-17.831 -3.139,-0.867 -5.909,-1.631 -5.909,-1.631 0,0 -0.273,10.348 -15.141,19.462"
         style="fill:#ffffff;fill-opacity:1;fill-rule:nonzero;stroke:none"
         id="path30"
         inkscape:connector-curvature="0" /></g><g
       id="g32"
       transform="translate(27.5288,146.3398)"
       style="fill:#ffffff;fill-opacity:1"><path
         d="m 0,0 20.144,0 22.678,-43.223 8.537,-19.21 0.534,0 c -0.446,4.624 -0.957,9.783 -1.534,15.475 -0.58,5.69 -0.867,11.116 -0.867,16.275 l 0,30.683 18.676,0 0,-86.979 -20.144,0 -22.678,43.356 -8.537,18.943 -0.534,0 c 0.444,-4.802 0.954,-9.961 1.534,-15.474 0.578,-5.516 0.867,-10.852 0.867,-16.008 l 0,-30.817 L 0,-86.979 0,0 z"
         style="fill:#ffffff;fill-opacity:1;fill-rule:nonzero;stroke:none"
         id="path34"
         inkscape:connector-curvature="0" /></g><g
       id="g36"
       transform="translate(144.1265,74.7031)"
       style="fill:#ffffff;fill-opacity:1"><path
         d="m 0,0 c 5.957,0 10.672,2.555 14.14,7.67 3.468,5.113 5.203,12.072 5.203,20.877 0,8.715 -1.735,15.518 -5.203,20.411 -3.468,4.89 -8.183,7.337 -14.14,7.337 -5.959,0 -10.672,-2.447 -14.141,-7.337 -3.468,-4.893 -5.202,-11.696 -5.202,-20.411 0,-8.805 1.734,-15.764 5.202,-20.877 C -10.672,2.555 -5.959,0 0,0 m 0,-16.941 c -5.87,0 -11.229,1.045 -16.075,3.133 -4.848,2.089 -9.005,5.091 -12.473,9.005 -3.469,3.912 -6.16,8.671 -8.071,14.274 -1.913,5.603 -2.868,11.961 -2.868,19.076 0,7.115 0.955,13.451 2.868,19.01 1.911,5.556 4.602,10.226 8.071,14.007 3.468,3.78 7.625,6.67 12.473,8.672 4.846,2 10.205,3 16.075,3 5.869,0 11.226,-1 16.075,-3 4.846,-2.002 9.004,-4.916 12.472,-8.738 3.469,-3.825 6.158,-8.518 8.071,-14.074 1.912,-5.559 2.868,-11.852 2.868,-18.877 0,-7.115 -0.956,-13.473 -2.868,-19.076 C 34.705,3.868 32.016,-0.891 28.547,-4.803 25.079,-8.717 20.921,-11.719 16.075,-13.808 11.226,-15.896 5.869,-16.941 0,-16.941"
         style="fill:#ffffff;fill-opacity:1;fill-rule:nonzero;stroke:none"
         id="path38"
         inkscape:connector-curvature="0" /></g><g
       id="g40"
       transform="translate(211.0996,106.3193)"
       style="fill:#ffffff;fill-opacity:1"><path
         d="m 0,0 10.138,0 c 5.157,0 9.092,1.087 11.806,3.268 2.712,2.178 4.069,5.403 4.069,9.672 0,4.268 -1.357,7.247 -4.069,8.938 -2.714,1.687 -6.649,2.535 -11.806,2.535 L 0,24.413 0,0 z m 27.48,-46.958 -16.675,31.35 -10.805,0 0,-31.35 -19.61,0 0,86.979 31.349,0 c 4.623,0 8.959,-0.448 13.007,-1.334 4.046,-0.891 7.581,-2.381 10.606,-4.47 3.022,-2.09 5.423,-4.87 7.203,-8.337 1.778,-3.469 2.668,-7.783 2.668,-12.94 0,-6.404 -1.401,-11.673 -4.202,-15.809 -2.802,-4.135 -6.56,-7.226 -11.272,-9.271 l 19.743,-34.818 -22.012,0 z"
         style="fill:#ffffff;fill-opacity:1;fill-rule:nonzero;stroke:none"
         id="path42"
         inkscape:connector-curvature="0" /></g><g
       id="g44"
       transform="translate(263.1309,102.3164)"
       style="fill:#ffffff;fill-opacity:1"><path
         d="m 0,0 c 0,7.204 1.111,13.628 3.335,19.276 2.222,5.648 5.223,10.427 9.004,14.341 3.78,3.913 8.182,6.891 13.207,8.939 5.023,2.044 10.338,3.067 15.941,3.067 5.424,0 10.339,-1.133 14.741,-3.401 4.402,-2.267 8.071,-4.915 11.006,-7.938 L 56.428,22.146 c -2.223,2.043 -4.469,3.644 -6.736,4.801 -2.268,1.155 -4.916,1.735 -7.938,1.735 -3.024,0 -5.849,-0.647 -8.471,-1.935 -2.624,-1.29 -4.914,-3.134 -6.869,-5.536 -1.958,-2.4 -3.492,-5.336 -4.603,-8.805 -1.113,-3.468 -1.667,-7.383 -1.667,-11.738 0,-8.984 1.911,-15.941 5.735,-20.877 3.824,-4.937 8.938,-7.404 15.342,-7.404 3.555,0 6.67,0.71 9.338,2.134 2.668,1.422 5.069,3.289 7.203,5.602 l 10.806,-11.871 c -3.648,-4.271 -7.804,-7.471 -12.473,-9.606 -4.669,-2.134 -9.718,-3.201 -15.141,-3.201 -5.603,0 -10.895,0.955 -15.874,2.867 -4.982,1.912 -9.339,4.737 -13.074,8.472 -3.735,3.734 -6.67,8.38 -8.804,13.94 C 1.067,-13.719 0,-7.293 0,0"
         style="fill:#ffffff;fill-opacity:1;fill-rule:nonzero;stroke:none"
         id="path46"
         inkscape:connector-curvature="0" /></g><g
       id="g48"
       transform="translate(432.2817,146.3398)"
       style="fill:#ffffff;fill-opacity:1"><path
         d="m 0,0 20.145,0 22.675,-43.223 8.54,-19.21 0.533,0 c -0.446,4.624 -0.955,9.783 -1.535,15.475 -0.579,5.69 -0.866,11.116 -0.866,16.275 l 0,30.683 18.675,0 0,-86.979 -20.144,0 -22.676,43.356 -8.539,18.943 -0.534,0 c 0.445,-4.802 0.955,-9.961 1.536,-15.474 0.577,-5.516 0.866,-10.852 0.866,-16.008 l 0,-30.817 L 0,-86.979 0,0 z"
         style="fill:#ffffff;fill-opacity:1;fill-rule:nonzero;stroke:none"
         id="path50"
         inkscape:connector-curvature="0" /></g><g
       id="g52"
       transform="translate(511.396,146.3398)"
       style="fill:#ffffff;fill-opacity:1"><path
         d="m 0,0 54.427,0 0,-16.542 -34.819,0 0,-17.476 29.617,0 0,-16.409 -29.617,0 0,-20.01 36.152,0 0,-16.542 -55.76,0 L 0,0 z"
         style="fill:#ffffff;fill-opacity:1;fill-rule:nonzero;stroke:none"
         id="path54"
         inkscape:connector-curvature="0" /></g><g
       id="g56"
       transform="translate(598.771,104.0508)"
       style="fill:#ffffff;fill-opacity:1"><path
         d="m 0,0 -22.679,42.289 21.879,0 7.605,-16.409 c 0.976,-2.047 1.955,-4.202 2.934,-6.47 0.977,-2.267 2.089,-4.781 3.334,-7.537 l 0.535,0 c 0.978,2.756 1.933,5.27 2.869,7.537 0.932,2.268 1.842,4.423 2.734,6.47 l 6.935,16.409 20.947,0 -22.546,-43.223 24.012,-43.755 -21.877,0 -8.672,17.742 c -1.067,2.312 -2.114,4.602 -3.135,6.871 -1.022,2.267 -2.157,4.735 -3.401,7.403 l -0.536,0 C 9.96,-15.341 8.983,-17.809 8.004,-20.076 7.025,-22.345 6.049,-24.635 5.069,-26.947 l -8.136,-17.742 -21.078,0 L 0,0 z"
         style="fill:#ffffff;fill-opacity:1;fill-rule:nonzero;stroke:none"
         id="path58"
         inkscape:connector-curvature="0" /></g></g></svg>